<svg width="51" height="33" viewBox="0 0 51 33" fill="none" xmlns="http://www.w3.org/2000/svg">
<path d="M49.75 11.5C49.75 13.892 47.5888 16.4567 43.1553 18.4961C38.8294 20.486 32.7653 21.75 26 21.75C19.2347 21.75 13.1706 20.486 8.84471 18.4961C4.41116 16.4567 2.25 13.892 2.25 11.5C2.25 9.10804 4.41116 6.54332 8.84471 4.50389C13.1706 2.51396 19.2347 1.25 26 1.25C32.7653 1.25 38.8294 2.51396 43.1553 4.50389C47.5888 6.54332 49.75 9.10804 49.75 11.5Z" stroke="#F44402" stroke-width="2.5"/>
<path d="M1.5 10.999C3.33333 11.8323 6.50674 13.9584 7 10.999C7.5 7.99919 11.7502 7.99983 12.5 10.999C13.5001 14.9995 17.5 13.9999 18 10.999C18.5 7.99814 23.1467 8.52498 23.5 10.999C24 14.4999 28.5 14.9999 29 10.999C29.4373 7.49987 34 7.99996 34.5 10.999C35.0987 14.5903 38.892 14.8759 40 10.999C41 7.5 45.0006 8 46 10.999C47.5 15.5 50.5 13 49.5 10" stroke="#F44402" stroke-width="2.5"/>
<path d="M40.5 19C41 15.9998 45 16.5 46 17.4996M16.5 20.4998C19 15 24.5 17.5 24.5 21M28 21.9999C27.5 17.9993 34 15.5 35 20.5001M7 18.4998C8 16.5 12.5 16.5 12.5 20.4998" stroke="#F44402" stroke-width="2.5"/>
<path d="M2.5 11.5C2.5 36.5 49.5 38 49.5 12.5" stroke="#F44402" stroke-width="2.5"/>
</svg>
